#!OML:ASF F:\VICON\USERDATA\INSTALL\rory3\rory3.ASF
:FULLY-SPECIFIED
:DEGREES
766
root 0.287636 17.9267 5.57442 -397.044 86.1661 -33.9142
lowerback 22.0958 1.82723 -1.27762
upperback 2.63451 2.89888 5.18625
thorax -9.81733 1.6544 5.59853
lowerneck -10.9883 -1.91485 -3.31934
upperneck 20.3674 -1.38632 -1.43363
head 8.14254 -0.93236 -0.0462304
rclavicle 6.16232e-015 2.54444e-014
rhumerus -18.0093 2.37359 -79.3888
rradius 36.408
rwrist 25.3358
rhand -5.26901 -0.0314805
rfingers 7.12502
rthumb 20.5349 -28.9654
lclavicle 6.16232e-015 2.54444e-014
lhumerus -42.3469 2.51531 86.9244
lradius 53.7472
lwrist 10.0023
lhand -9.52487 45.4195
lfingers 7.12502
lthumb 16.4411 74.7428
rfemur -15.5205 7.97975 22.594
rtibia 37.4567
rfoot -15.9736 -0.483041
rtoes 30.9626
lfemur -15.1989 -6.41562 -19.3524
ltibia 36.814
lfoot -15.5868 5.5104
ltoes 15.0485
767
root 0.289122 17.9213 5.56975 -393.653 86.3675 -30.3601
lowerback 22.3189 1.97145 -1.41001
upperback 2.61614 3.04886 5.1075
thorax -9.97748 1.73023 5.53915
lowerneck -11.0449 -1.97255 -3.27622
upperneck 20.511 -1.47971 -1.36437
head 8.20162 -0.966525 -0.0409953
rclavicle -5.1684e-015 4.77083e-015
rhumerus -17.6514 -1.06855 -78.8422
rradius 33.712
rwrist 22.7569
rhand -3.06061 0.0752911
rfingers 7.12502
rthumb 22.6558 -28.6149
lclavicle -5.1684e-015 4.77083e-015
lhumerus -42.4012 1.92996 87.265
lradius 54.1017
lwrist 9.83844
lhand -9.34772 46.0013
lfingers 7.12502
lthumb 16.6117 75.3104
rfemur -15.465 7.73846 22.233
rtibia 37.6987
rfoot -16.0862 -0.251868
rtoes 31.088
lfemur -14.9392 -7.05971 -19.7705
ltibia 36.7157
lfoot -15.8808 5.81635
ltoes 17.2558
768
root 0.294563 17.9205 5.57228 -394.023 86.6595 -30.6973
lowerback 22.3248 2.01667 -1.48399
upperback 2.5907 3.09801 5.15941
thorax -10.022 1.75959 5.62585
lowerneck -11.1915 -2.05275 -3.57979
upperneck 20.7403 -1.55134 -1.18306
head 8.31167 -1.00643 0.0602885
rclavicle 1.70955e-014 6.36111e-015
rhumerus -17.3589 -4.46978 -78.0759
rradius 31.041
rwrist 20.6646
rhand -2.88641 0.313889
rfingers 7.12502
rthumb 22.823 -28.3558
lclavicle 1.70955e-014 6.36111e-015
lhumerus -42.5074 1.23611 87.8033
lradius 54.5681
lwrist 10.2976
lhand -10.7429 46.9411
lfingers 7.12502
lthumb 15.2681 76.3576
rfemur -15.5082 7.65624 22.0645
rtibia 37.896
rfoot -16.2718 -0.402709
rtoes 31.6336
lfemur -14.9145 -6.86087 -19.9118
ltibia 36.6364
lfoot -15.6088 5.28695
ltoes 16.2461
769
root 0.303314 17.9191 5.58038 -395.522 86.673 -32.1134
lowerback 22.3465 2.10964 -1.41361
upperback 2.58783 3.24623 5.21661
thorax -10.0543 1.82982 5.6025
lowerneck -11.2431 -2.17105 -3.76478
upperneck 20.8558 -1.71911 -0.958585
head 8.36639 -1.07789 0.147525
rclavicle 7.35503e-015 -5.40694e-014
rhumerus -17.3541 -8.38683 -77.3361
rradius 28.6635
rwrist 19.9889
rhand -3.60839 0.93688
rfingers 7.12502
rthumb 22.13 -27.8166
lclavicle 7.35503e-015 -5.40694e-014
lhumerus -42.6272 0.483543 88.276
lradius 54.8774
lwrist 10.2545
lhand -12.9441 48.209
lfingers 7.12502
lthumb 13.1471 77.7745
rfemur -15.4 7.81838 22.2098
rtibia 37.9933
rfoot -16.422 -0.788749
rtoes 31.5257
lfemur -14.8185 -6.40904 -19.806
ltibia 36.6273
lfoot -15.3681 4.68375
ltoes 15.9095
770
root 0.310606 17.9156 5.58432 -398.556 86.6215 -35.0673
lowerback 22.4942 2.14961 -1.05474
upperback 2.49814 3.38552 5.17373
thorax -10.2284 1.88171 5.29995
lowerneck -11.115 -2.24482 -3.35835
upperneck 20.8909 -1.86127 -1.15262
head 8.34887 -1.13065 0.00154303
rclavicle -2.44505e-014 -4.77083e-014
rhumerus -17.8728 -12.7644 -76.6733
rradius 26.7875
rwrist 20.688
rhand -4.82393 1.64328
rfingers 7.12502
rthumb 20.9626 -27.2439
lclavicle -2.44505e-014 -4.77083e-014
lhumerus -42.854 0.452085 88.0685
lradius 55.0241
lwrist 10.4282
lhand -15.1986 48.4546
lfingers 7.12502
lthumb 10.9732 78.1478
rfemur -15.2855 8.02865 22.5043
rtibia 38.0606
rfoot -16.5453 -1.43149
rtoes 30.4989
lfemur -14.73 -6.20172 -19.5927
ltibia 36.6579
lfoot -15.3954 4.26269
ltoes 16.595
